<svg viewBox="0 0 28 25" fill="none" xmlns="http://www.w3.org/2000/svg"><g><path d="M27.1418 11.1035C27.1418 4.77367 21.3697 0 13.7165 0C6.02467 0 0 4.87813 0 11.1051C0 14.8384 2.64098 17.5131 4.93488 19.1317V24.5897C4.93531 24.6582 4.95277 24.7255 4.9857 24.7856C5.01863 24.8457 5.06599 24.8966 5.12352 24.9338C5.18104 24.971 5.24692 24.9933 5.31521 24.9987C5.38351 25.0041 5.45207 24.9924 5.51473 24.9647C5.63481 24.9113 8.44193 23.6356 10.8436 21.0094C11.884 21.2027 13.061 21.3886 14.1286 21.3886C21.9117 21.3886 27.1418 17.2548 27.1418 11.1035ZM14.1277 20.5661C13.0503 20.5661 11.8256 20.3597 10.7696 20.1582C10.6996 20.1453 10.6275 20.1506 10.5601 20.1735C10.4927 20.1964 10.4323 20.2361 10.3846 20.2889C8.69855 22.1905 6.71719 23.3987 5.75736 23.9194V18.917C5.75733 18.8503 5.74107 18.7846 5.70998 18.7256C5.67888 18.6665 5.63389 18.6159 5.57888 18.5782C3.40918 17.0854 0.82248 14.5785 0.82248 11.1051C0.82248 5.33872 6.48608 0.82248 13.7165 0.82248C20.9017 0.82248 26.3194 5.24249 26.3194 11.1035C26.3194 16.7638 21.4198 20.5661 14.1277 20.5661Z" fill="#F5F5F5"></path><path d="M13.571 9.4585C12.6638 9.4585 11.926 10.1963 11.926 11.1035C11.926 12.0107 12.6638 12.7484 13.571 12.7484C14.4782 12.7484 15.2159 12.0107 15.2159 11.1035C15.2159 10.1963 14.4782 9.4585 13.571 9.4585ZM13.571 11.9259C13.3592 11.9165 13.1593 11.8257 13.0127 11.6725C12.8662 11.5193 12.7845 11.3154 12.7845 11.1035C12.7845 10.8915 12.8662 10.6877 13.0127 10.5344C13.1593 10.3812 13.3592 10.2904 13.571 10.281C13.7828 10.2904 13.9827 10.3812 14.1292 10.5344C14.2757 10.6877 14.3575 10.8915 14.3575 11.1035C14.3575 11.3154 14.2757 11.5193 14.1292 11.6725C13.9827 11.8257 13.7828 11.9165 13.571 11.9259Z" fill="#F5F5F5"></path><path d="M19.3283 9.4585C18.4211 9.4585 17.6833 10.1963 17.6833 11.1035C17.6833 12.0107 18.4211 12.7484 19.3283 12.7484C20.2355 12.7484 20.9733 12.0107 20.9733 11.1035C20.9733 10.1963 20.2355 9.4585 19.3283 9.4585ZM19.3283 11.9259C19.1165 11.9165 18.9166 11.8257 18.7701 11.6725C18.6236 11.5193 18.5418 11.3154 18.5418 11.1035C18.5418 10.8915 18.6236 10.6877 18.7701 10.5344C18.9166 10.3812 19.1165 10.2904 19.3283 10.281C19.5401 10.2904 19.74 10.3812 19.8865 10.5344C20.0331 10.6877 20.1148 10.8915 20.1148 11.1035C20.1148 11.3154 20.0331 11.5193 19.8865 11.6725C19.74 11.8257 19.5401 11.9165 19.3283 11.9259Z" fill="#F5F5F5"></path><path d="M7.81354 9.53662C6.90634 9.53662 6.16858 10.2744 6.16858 11.1816C6.16858 12.0888 6.90634 12.8265 7.81354 12.8265C8.72073 12.8265 9.4585 12.0888 9.4585 11.1816C9.4585 10.2744 8.72073 9.53662 7.81354 9.53662ZM7.81354 12.0041C7.60177 11.9946 7.40181 11.9038 7.2553 11.7506C7.10879 11.5974 7.02703 11.3936 7.02703 11.1816C7.02703 10.9696 7.10879 10.7658 7.2553 10.6126C7.40181 10.4594 7.60177 10.3686 7.81354 10.3591C8.02531 10.3686 8.22527 10.4594 8.37178 10.6126C8.51828 10.7658 8.60005 10.9696 8.60005 11.1816C8.60005 11.3936 8.51828 11.5974 8.37178 11.7506C8.22527 11.9038 8.02531 11.9946 7.81354 12.0041Z" fill="#F5F5F5"></path></g></svg>