<svg viewBox="0 0 64 64" version="1.1" xmlns="http://www.w3.org/2000/svg" xmlns:xlink="http://www.w3.org/1999/xlink"><title>clock</title><g id="Page-1" stroke="none" stroke-width="1" fill="none" fill-rule="evenodd"><g id="clock" fill="#000000"><path d="M32,0 C49.673112,0 64,14.326888 64,32 C64,49.673112 49.673112,64 32,64 C14.326888,64 0,49.673112 0,32 C0,14.326888 14.326888,0 32,0 Z M32,5.875 C46.4284391,5.875 58.125,17.5715609 58.125,32 C58.125,46.4284391 46.4284391,58.125 32,58.125 C17.5715609,58.125 5.875,46.4284391 5.875,32 C5.875,17.5715609 17.5715609,5.875 32,5.875 Z M32,29.125 C33.5878187,29.125 34.875,30.4121813 34.875,32 C34.875,33.5878187 33.5878187,34.875 32,34.875 C30.4121813,34.875 29.125,33.5878187 29.125,32 C29.125,30.4121813 30.4121813,29.125 32,29.125 Z M32,7.875 C33.5878187,7.875 34.875,9.16218134 34.875,10.75 C34.875,12.3378187 33.5878187,13.625 32,13.625 C30.4121813,13.625 29.125,12.3378187 29.125,10.75 C29.125,9.16218134 30.4121813,7.875 32,7.875 Z M32,50.375 C33.5878187,50.375 34.875,51.6621813 34.875,53.25 C34.875,54.8378187 33.5878187,56.125 32,56.125 C30.4121813,56.125 29.125,54.8378187 29.125,53.25 C29.125,51.6621813 30.4121813,50.375 32,50.375 Z M53.25,29.125 C54.8378187,29.125 56.125,30.4121813 56.125,32 C56.125,33.5878187 54.8378187,34.875 53.25,34.875 C51.6621813,34.875 50.375,33.5878187 50.375,32 C50.375,30.4121813 51.6621813,29.125 53.25,29.125 Z M10.75,29.125 C12.3378187,29.125 13.625,30.4121813 13.625,32 C13.625,33.5878187 12.3378187,34.875 10.75,34.875 C9.16218134,34.875 7.875,33.5878187 7.875,32 C7.875,30.4121813 9.16218134,29.125 10.75,29.125 Z M29.125,14.875 L34.875,14.875 L34.875,27.375 L29.125,27.375 L29.125,14.875 Z" id="Shape"></path><polygon id="Path" fill-rule="nonzero" transform="translate(43.000000, 31.790000) rotate(-90.000000) translate(-43.000000, -31.790000) " points="45.875 38.04 40.125 38.04 40.125 25.54 45.875 25.54"></polygon></g></g></svg>