<svg
	viewBox="0 0 25 25"
	version="1.1"
	xmlns="http://www.w3.org/2000/svg"
	xmlns:xlink="http://www.w3.org/1999/xlink"
>
	<g
		id="Page-1"
		stroke="none"
		stroke-width="1"
		fill="#000000"
		fill-rule="evenodd"
	>
		<g
			id="cube"
			transform="translate(-0.000000, 0.000000)"
			fill="#8f8f91"
			fill-rule="nonzero"
		>
			<g id="Group-2">
				<path
					d="M17.2086002,7.23109992 C16.8361002,7.01275992 16.4723002,6.90233992 16.1848002,6.90233992 C15.8990002,6.90233992 15.6898002,7.01275992 15.6265002,7.23109992 C15.4973002,7.66817992 15.9998002,8.37651992 16.7457002,8.81360992 C17.1190002,9.03277992 17.4824002,9.14194992 17.7690002,9.14194992 C18.0549002,9.14194992 18.2640002,9.03277992 18.3290002,8.81360992 C18.4569002,8.37651992 17.9553002,7.66817992 17.2086002,7.23109992 Z"
					id="Path"
				></path>
				<path
					d="M11.3044002,19.2266999 C11.0356002,19.1303999 10.6569002,19.1111999 10.2310002,19.1916999 C9.38101018,19.3545999 8.67100018,19.8545999 8.64475018,20.3091999 C8.63142018,20.5361999 8.79225018,20.7099999 9.06225018,20.8053999 C9.33184018,20.9016999 9.71101018,20.9199999 10.1356002,20.8391999 C10.9860002,20.6774999 11.6964002,20.1778999 11.7227002,19.7220999 C11.7360002,19.4949999 11.5752002,19.3216999 11.3044002,19.2266999 Z"
					id="Path"
				></path>
				<path
					d="M15.4176002,18.3011999 C15.1485002,18.2057999 14.7685002,18.1857999 14.3443002,18.2669999 C13.4947002,18.4290999 12.7851002,18.9278999 12.7589002,19.3836999 C12.7464002,19.6111999 12.9068002,19.7840999 13.1764002,19.8799999 C13.4459002,19.9757999 13.8255002,19.9944999 14.2497002,19.9144999 C15.1010002,19.7519999 15.8089002,19.2528999 15.8360002,18.7973999 C15.8476002,18.5698999 15.6876002,18.3973999 15.4176002,18.3011999 Z"
					id="Path"
				></path>
				<path
					d="M19.3609002,17.4952999 C19.0922002,17.3998999 18.7118002,17.3807999 18.2868002,17.4615999 C17.4380002,17.6236999 16.7276002,18.1227999 16.7022002,18.5786999 C16.6897002,18.8057999 16.8497002,18.9790999 17.1197002,19.0748999 C17.3888002,19.1707999 17.7688002,19.1894999 18.1938002,19.1086999 C19.0443002,18.9465999 19.7530002,18.4473999 19.7793002,17.9923999 C19.7918002,17.7644999 19.6309002,17.5915999 19.3609002,17.4952999 Z"
					id="Path"
				></path>
				<path
					d="M8.07498018,10.1165999 C7.84998018,10.2931999 7.63123018,10.6040999 7.47123018,11.0065999 C7.15372018,11.8115999 7.19623018,12.6773999 7.56581018,12.9427999 C7.75165018,13.0752999 7.98415018,13.0331999 8.20915018,12.8565999 C8.43540018,12.6798999 8.65415018,12.3690999 8.81332018,11.9669999 C9.13082018,11.1623999 9.08874018,10.2952999 8.71874018,10.0298999 C8.53332018,9.89737992 8.30040018,9.93946992 8.07498018,10.1165999 Z"
					id="Path"
				></path>
				<path
					d="M3.49173018,8.72112992 C3.26548018,8.89779992 3.04673018,9.20779992 2.88756018,9.61029992 C2.56922018,10.4148999 2.61131018,11.2819999 2.98298018,11.5465999 C3.16714018,11.6794999 3.39965018,11.6365999 3.62590018,11.4598999 C3.85090018,11.2831999 4.06965018,10.9727999 4.22882018,10.5702999 C4.54716018,9.76613992 4.50466018,8.89904992 4.13424018,8.63320992 C3.94923018,8.50112992 3.71673018,8.54362992 3.49173018,8.72112992 Z"
					id="Path"
				></path>
				<path
					d="M24.8719002,14.0511999 L22.1406002,5.81441992 C21.7281002,4.57024992 20.4306002,3.27148992 19.1856002,2.85897992 L10.9480002,0.127709918 C10.4338002,-0.0427085825 9.97175018,-0.0418751825 9.61591018,0.126042918 C9.23091018,0.230626918 8.79090018,0.396461918 8.34007018,0.606463918 C7.72381018,0.893548918 6.96381018,1.32979992 6.64130018,1.70938992 C6.60503018,1.74049992 6.56987018,1.77287992 6.53589018,1.80646992 L1.01126018,7.33234992 C0.152500178,8.19068992 -0.229586822,9.82403992 0.141666178,11.0510999 L2.54252018,19.0028999 C2.58627018,19.1482999 2.64044018,19.2853999 2.70377018,19.4107999 C2.89711018,19.9990999 3.68961018,20.8236999 3.93295018,21.0670999 C4.17712018,21.3107999 5.00296018,22.1053999 5.59129018,22.2982999 C5.71630018,22.3603999 5.85338018,22.4145999 5.99796018,22.4582999 L13.9493002,24.8591999 C14.2576002,24.9528999 14.5964002,25 14.9568002,25 L14.9572002,25 C15.9901002,25 17.0539002,24.6032999 17.6672002,23.9899999 L23.1931002,18.4636999 C23.2281002,18.4286999 23.2598002,18.3936999 23.2906002,18.3582999 C23.6706002,18.0344999 24.1069002,17.2744999 24.3931002,16.6602999 C24.6044002,16.2073999 24.7702002,15.7661999 24.8748002,15.3807999 C25.0431002,15.0227999 25.0423002,14.5644999 24.8719002,14.0511999 Z M3.96211018,19.9028999 C3.65920018,19.5344999 3.49878018,19.2615999 3.46669018,19.1482999 L3.43586018,19.0715999 C3.38621018,18.9750999 3.34576018,18.8740999 3.31503018,18.7698999 L0.913339178,10.8177999 C0.630420178,9.88236992 0.936256178,8.54735992 1.58126018,7.90276992 L7.10714018,2.37647992 C7.13547018,2.34772992 7.16547018,2.32272992 7.19422018,2.29772992 L7.24756018,2.24188992 C7.34173018,2.12272992 7.59715018,1.92855992 7.96381018,1.71271992 C8.31340018,1.82313992 8.61090018,2.15313992 8.77215018,2.68897992 L11.1730002,10.6410999 C11.4997002,11.7215999 11.1555002,13.2073999 10.4043002,13.9586999 L4.87921018,19.4844999 C4.57837018,19.7849999 4.25920018,19.9153999 3.96211018,19.9028999 Z M22.7569002,17.7528999 L22.6998002,17.8082999 C22.6752002,17.8365999 22.6510002,17.8653999 22.6223002,17.8936999 L17.0972002,23.4199999 C16.6347002,23.8824999 15.7743002,24.1928999 14.9572002,24.1928999 L14.9568002,24.1928999 C14.6948002,24.1956999 14.4338002,24.1599999 14.1822002,24.0870999 L6.23088018,21.6861999 C6.12680018,21.6551999 6.02581018,21.6145999 5.92921018,21.5649999 L5.85213018,21.5349999 C5.73921018,21.5032999 5.46629018,21.3420999 5.09796018,21.0390999 C5.08504018,20.7415999 5.21462018,20.4228999 5.51588018,20.1215999 L11.0405002,14.5961999 C11.7922002,13.8444999 13.2772002,13.5002999 14.3580002,13.8269999 L22.3093002,16.2282999 C22.8460002,16.3902999 23.1760002,16.6882999 23.2860002,17.0377999 C23.0710002,17.4036999 22.8760002,17.6582999 22.7569002,17.7528999 Z M24.1377002,15.0527999 L24.1060002,15.1361999 C24.0669002,15.2848999 24.0131002,15.4498999 23.9510002,15.6207999 C23.7273002,15.6636999 23.4523002,15.6402999 23.1335002,15.5344999 L14.8964002,12.8031999 C13.7764002,12.4323999 12.5672002,11.2231999 12.1972002,10.1035999 L9.46591018,1.86646992 C9.36049018,1.54771992 9.33674018,1.27313992 9.37966018,1.04896992 C9.54966018,0.987716918 9.71341018,0.933965918 9.86175018,0.894798918 L9.94633018,0.861881918 C10.0184002,0.824381918 10.1113002,0.805214918 10.2226002,0.805214918 C10.3609002,0.805214918 10.5197002,0.834798918 10.6951002,0.892715918 L18.9322002,3.62398992 C19.9272002,3.95398992 21.0456002,5.07316992 21.3752002,6.06775992 L24.1069002,14.3044999 C24.2102002,14.6186999 24.2219002,14.8906999 24.1377002,15.0527999 Z"
					id="Shape"
				></path>
			</g>
		</g>
	</g>
</svg>