<svg viewBox="0 0 406 392" version="1.1" xmlns="http://www.w3.org/2000/svg" xmlns:xlink="http://www.w3.org/1999/xlink"><title>Group</title><g id="Page-1" stroke="none" stroke-width="1" fill="#8f8f91" fill-rule="evenodd"><g id="video-game-logo-dota2-512" transform="translate(0.024306, 0.353182)" fill="#000000" fill-rule="nonzero"><g id="Group" transform="translate(202.825680, 195.761472) scale(-1, 1) rotate(-180.000000) translate(-202.825680, -195.761472) translate(0.000000, 0.000000)"><path d="M45.4756943,383.076125 C8.07569429,373.476125 5.97569429,372.576125 2.07569429,364.476125 C-0.624305714,358.876125 -0.724305714,350.876125 1.97569429,345.476125 C5.17569429,339.076125 289.675694,14.8761247 294.475694,12.1761247 C297.175694,10.5761247 300.175694,9.87612468 303.775694,9.87612468 C311.975694,9.87612468 380.675694,18.7761247 384.275694,20.2761247 C388.875694,22.1761247 392.775694,26.2761247 394.975694,31.1761247 C397.375694,36.5761247 406.575694,109.676125 405.575694,115.076125 C405.175694,117.076125 403.475694,120.776125 401.675694,123.276125 C399.675694,126.176125 349.875694,169.676125 270.475694,238.076125 C200.075694,298.676125 131.975694,357.276125 119.175694,368.276125 C106.375694,379.276125 94.7756943,388.976125 93.2756943,389.676125 C86.9756943,393.076125 81.2756943,392.276125 45.4756943,383.076125 Z M231.975694,242.876125 C311.975694,173.976125 379.075694,115.976125 381.075694,113.976125 L384.775694,110.376125 L380.375694,75.4761247 C377.875694,56.1761247 375.775694,40.2761247 375.475694,40.0761247 C375.275694,39.8761247 359.275694,37.6761247 339.875694,35.2761247 C311.175694,31.6761247 304.375694,31.0761247 303.375694,32.0761247 C298.675694,36.8761247 21.1756943,354.476125 21.4754512,354.776125 C21.6756943,354.976125 35.6756943,358.576125 52.6756943,362.876125 C77.3756943,369.076125 83.7756943,370.376125 84.9756943,369.376125 C85.7756943,368.676125 151.975694,311.776125 231.975694,242.876125 Z" id="Shape"></path><path d="M300.875694,378.076125 C282.475694,371.076125 266.175694,364.576125 264.775694,363.676125 C255.775694,357.776125 252.875694,345.776125 257.975694,335.876125 C258.975694,333.976125 279.375694,312.976125 303.175694,289.176125 C347.775694,244.676125 350.975694,241.976125 358.475694,241.876125 C364.075694,241.876125 369.275694,244.076125 373.575694,248.176125 C377.875694,252.276125 378.175694,253.076125 391.475694,292.476125 C398.875694,314.576125 404.975694,333.976125 404.975694,335.576125 C404.975694,339.376125 403.175694,344.576125 400.675694,348.176125 C398.375694,351.576125 354.975694,386.576125 349.975694,389.076125 C347.775694,390.276125 344.475694,390.876125 340.475694,390.776125 C335.375694,390.676125 329.675694,388.876125 300.875694,378.076125 Z M361.775694,353.276125 C373.175694,344.176125 382.575694,336.276125 382.775694,335.776125 C383.175694,334.676125 359.775694,263.876125 358.975694,263.876125 C358.175694,263.876125 276.575694,345.776125 276.975694,346.176125 C277.675694,346.676125 339.375694,369.676125 340.275694,369.777113 C340.675694,369.876125 350.375694,362.376125 361.775694,353.276125 Z" id="Shape"></path><path d="M49.4756943,158.476125 C41.8756943,155.176125 40.9756943,153.776125 22.0756943,111.076125 C6.37569429,75.7761247 3.97569429,69.6761247 3.97569429,65.3761247 C3.97569429,59.2761247 6.57569429,53.3761247 11.0756943,49.2761247 C21.8756943,39.2761247 66.0756943,3.27612468 69.4756943,1.77612468 C77.0756943,-1.72387532 79.8756943,-1.02387532 116.975694,12.8761247 C135.975694,20.0761247 153.275694,27.0761247 155.375694,28.6761247 C157.575694,30.1761247 160.275694,33.1761247 161.375694,35.3761247 C164.175694,40.7761247 164.275694,49.9761247 161.475694,55.0761247 C160.375694,57.0761247 142.575694,77.3761247 121.975694,100.076125 C74.1756943,152.676125 71.2756943,155.676125 66.7756943,157.976125 C62.4756943,160.176125 53.9756943,160.476125 49.4756943,158.476125 Z M100.075694,92.2761247 C122.875694,67.2761247 141.575694,46.3761247 141.77679,45.9761247 C142.075694,45.1761247 80.6756943,21.5761247 78.4756943,21.5761247 C77.0756943,21.5761247 24.9756943,64.9761247 25.3756943,65.7761247 C25.4756943,66.0761247 32.7756943,82.4761247 41.4756943,102.176125 C50.1756943,121.776125 57.6756943,137.876125 58.0756943,137.876125 C58.4756943,137.876125 77.3756943,117.376125 100.075694,92.2761247 Z" id="Shape"></path></g></g></g></svg>