<svg viewBox="0 0 320 320" version="1.1" xmlns="http://www.w3.org/2000/svg" xmlns:xlink="http://www.w3.org/1999/xlink"><g id="Page-1" stroke="none" stroke-width="1" fill="none" fill-rule="evenodd"><g id="calendar" fill="#8f8f91" fill-rule="nonzero"><path d="M248.861138,22.804813 L248.861138,25.4065691 L251.462764,25.4065691 L280.680325,25.4065691 C302.359675,25.4065691 320,43.0470244 320,64.7255935 L320,280.680325 C320,302.359675 302.359675,320 280.680325,320 L39.3191545,320 C17.6404553,320 0,302.359675 0,280.680325 L0,64.7255935 C0,43.0470244 17.6404553,25.4065691 39.3191545,25.4065691 L68.5365854,25.4065691 L71.1382114,25.4065691 L71.1382114,22.804813 L71.1382114,7.56097561 C71.1382114,3.38540488 74.523187,0 78.699187,0 C82.875187,0 86.2601626,3.38540488 86.2601626,7.56097561 L86.2601626,22.804813 L86.2601626,25.4065691 L88.8617886,25.4065691 L231.138862,25.4065691 L233.740488,25.4065691 L233.740488,22.804813 L233.740488,7.56097561 C233.740488,3.38541789 237.125203,0 241.300813,0 C245.476423,0 248.861138,3.38541789 248.861138,7.56097561 L248.861138,22.804813 Z M71.1382114,43.1300163 L71.1382114,40.5283902 L68.5365854,40.5283902 L39.3191545,40.5283902 C25.9742439,40.5283902 15.1219512,51.3806829 15.1219512,64.7255935 L15.1219512,88.8617886 L15.1219512,91.4634146 L17.7235772,91.4634146 L302.276423,91.4634146 L304.878049,91.4634146 L304.878049,88.8617886 L304.878049,64.7255935 C304.878049,51.3806829 294.025366,40.5283902 280.680325,40.5283902 L251.462764,40.5283902 L248.861138,40.5283902 L248.861138,43.1300163 L248.861138,53.292748 C248.861138,57.4682276 245.476423,60.8537236 241.300813,60.8537236 C237.125203,60.8537236 233.740488,57.4682276 233.740488,53.292748 L233.740488,43.1300163 L233.740488,40.5283902 L231.138862,40.5283902 L88.8617886,40.5283902 L86.2601626,40.5283902 L86.2601626,43.1300163 L86.2601626,53.292748 C86.2601626,57.4682276 82.875187,60.8537236 78.699187,60.8537236 C74.523187,60.8537236 71.1382114,57.4682276 71.1382114,53.292748 L71.1382114,43.1300163 Z M17.7235772,106.585366 L15.1219512,106.585366 L15.1219512,109.186992 L15.1219512,280.680325 C15.1219512,294.025366 25.9742439,304.878049 39.3191545,304.878049 L280.680325,304.878049 C294.025366,304.878049 304.878049,294.025366 304.878049,280.680325 L304.878049,109.186992 L304.878049,106.585366 L302.276423,106.585366 L17.7235772,106.585366 Z"></path></g></g></svg>